<svg width="30" height="21" viewBox="0 0 30 21" fill="none" xmlns="http://www.w3.org/2000/svg">
<path d="M1.38 20.656C1.012 20.656 0.736 20.564 0.552 20.38C0.368 20.1347 0.337333 19.7973 0.46 19.368L6.624 1.51999C6.808 0.906662 7.20667 0.599996 7.82 0.599996H13.892C14.7507 0.599996 15.088 0.998663 14.904 1.796L10.58 19.736C10.396 20.3493 9.99733 20.656 9.384 20.656H1.38ZM15.364 20.656C14.996 20.656 14.72 20.564 14.536 20.38C14.4133 20.1347 14.4133 19.7973 14.536 19.368L20.608 1.51999C20.792 0.906662 21.1907 0.599996 21.804 0.599996H27.784C28.6427 0.599996 28.98 0.998663 28.796 1.796L24.656 19.644C24.472 20.3187 24.0733 20.656 23.46 20.656H15.364Z" fill="#87F5A6"/>
</svg>
