<svg width="307" height="308" viewBox="0 0 307 308" fill="none" xmlns="http://www.w3.org/2000/svg">
<path d="M10.7161 216.753C12.8605 214.602 12.8605 211.114 10.7161 208.962C8.5718 206.811 5.09515 206.811 2.95081 208.962C0.806475 211.114 0.806474 214.602 2.95081 216.753C5.09515 218.904 8.5718 218.904 10.7161 216.753Z" fill="#87F5A6"/>
<path d="M40.9988 247.134C43.6674 244.457 43.6674 240.116 40.9988 237.439C38.3301 234.762 34.0034 234.762 31.3348 237.439C28.6661 240.116 28.6661 244.457 31.3348 247.134C34.0034 249.812 38.3301 249.812 40.9988 247.134Z" fill="#87F5A6"/>
<path d="M70.3321 276.563C73.0007 273.886 73.0007 269.545 70.3321 266.868C67.6634 264.19 63.3367 264.19 60.6681 266.868C57.9995 269.545 57.9995 273.886 60.6681 276.563C63.3367 279.24 67.6634 279.24 70.3321 276.563Z" fill="#87F5A6"/>
<path d="M98.7161 305.04C100.86 302.888 100.86 299.4 98.7161 297.249C96.5717 295.098 93.0951 295.098 90.9507 297.249C88.8064 299.4 88.8064 302.888 90.9507 305.04C93.0951 307.191 96.5717 307.191 98.7161 305.04Z" fill="#87F5A6"/>
<path d="M11.6655 158.848C14.3341 156.17 14.3341 151.83 11.6655 149.152C8.99683 146.475 4.67012 146.475 2.00148 149.152C-0.667159 151.83 -0.667159 156.17 2.00148 158.848C4.67012 161.525 8.99683 161.525 11.6655 158.848Z" fill="#87F5A6"/>
<path d="M42.8761 190.16C46.5816 186.443 46.5816 180.415 42.8761 176.698C39.1706 172.98 33.1629 172.98 29.4575 176.698C25.752 180.415 25.752 186.443 29.4575 190.16C33.1629 193.878 39.1706 193.878 42.8761 190.16Z" fill="#87F5A6"/>
<path d="M74.0867 221.472C78.829 216.715 78.829 209.001 74.0867 204.243C69.3445 199.485 61.6557 199.485 56.9134 204.243C52.1711 209.001 52.1711 216.715 56.9134 221.472C61.6557 226.23 69.3445 226.23 74.0867 221.472Z" fill="#87F5A6"/>
<path d="M103.42 250.901C108.162 246.143 108.162 238.43 103.42 233.672C98.6778 228.914 90.989 228.914 86.2467 233.672C81.5044 238.43 81.5044 246.143 86.2467 250.901C90.989 255.659 98.6778 255.659 103.42 250.901Z" fill="#87F5A6"/>
<path d="M130.876 278.447C134.581 274.729 134.581 268.702 130.876 264.984C127.171 261.267 121.163 261.267 117.457 264.984C113.752 268.702 113.752 274.729 117.457 278.447C121.163 282.164 127.171 282.164 130.876 278.447Z" fill="#87F5A6"/>
<path d="M158.332 305.992C161.001 303.315 161.001 298.974 158.332 296.297C155.663 293.619 151.337 293.619 148.668 296.297C145.999 298.974 145.999 303.315 148.668 305.992C151.337 308.669 155.663 308.669 158.332 305.992Z" fill="#87F5A6"/>
<path d="M10.7161 99.0376C12.8605 96.8863 12.8605 93.3983 10.7161 91.247C8.5718 89.0957 5.09515 89.0957 2.95081 91.247C0.806474 93.3983 0.806475 96.8863 2.95081 99.0376C5.09515 101.189 8.5718 101.189 10.7161 99.0376Z" fill="#87F5A6"/>
<path d="M42.8761 131.302C46.5816 127.585 46.5816 121.558 42.8761 117.84C39.1706 114.122 33.1629 114.122 29.4575 117.84C25.752 121.558 25.752 127.585 29.4575 131.302C33.1629 135.02 39.1706 135.02 42.8761 131.302Z" fill="#87F5A6"/>
<path d="M75.0254 163.556C80.2861 158.279 80.2861 149.721 75.0254 144.444C69.7647 139.166 61.2355 139.166 55.9748 144.444C50.7141 149.721 50.7141 158.279 55.9748 163.556C61.2355 168.834 69.7647 168.834 75.0254 163.556Z" fill="#87F5A6"/>
<path d="M107.185 195.821C114.007 188.977 114.007 177.881 107.185 171.037C100.364 164.193 89.3032 164.193 82.4814 171.037C75.6596 177.881 75.6596 188.977 82.4814 195.821C89.3032 202.665 100.364 202.665 107.185 195.821Z" fill="#87F5A6"/>
<path d="M136.519 225.25C143.34 218.406 143.34 207.31 136.519 200.465C129.697 193.621 118.637 193.621 111.815 200.465C104.993 207.31 104.993 218.406 111.815 225.25C118.637 232.094 129.697 232.094 136.519 225.25Z" fill="#87F5A6"/>
<path d="M163.025 251.843C168.286 246.565 168.286 238.008 163.025 232.73C157.765 227.452 149.235 227.452 143.975 232.73C138.714 238.008 138.714 246.565 143.975 251.843C149.235 257.121 157.765 257.121 163.025 251.843Z" fill="#87F5A6"/>
<path d="M189.543 278.447C193.248 274.729 193.248 268.702 189.543 264.984C185.837 261.267 179.829 261.267 176.124 264.984C172.419 268.702 172.419 274.729 176.124 278.447C179.829 282.164 185.837 282.164 189.543 278.447Z" fill="#87F5A6"/>
<path d="M216.049 305.04C218.194 302.888 218.194 299.4 216.049 297.249C213.905 295.098 210.428 295.098 208.284 297.249C206.14 299.4 206.14 302.888 208.284 305.04C210.428 307.191 213.905 307.191 216.049 305.04Z" fill="#87F5A6"/>
<path d="M40.9988 70.5612C43.6674 67.8838 43.6674 63.543 40.9988 60.8657C38.3301 58.1884 34.0034 58.1884 31.3348 60.8657C28.6661 63.543 28.6661 67.8838 31.3348 70.5612C34.0034 73.2385 38.3301 73.2385 40.9988 70.5612Z" fill="#87F5A6"/>
<path d="M74.0867 103.757C78.829 98.9992 78.829 91.2854 74.0867 86.5277C69.3445 81.7699 61.6557 81.7699 56.9134 86.5277C52.1711 91.2854 52.1711 98.9992 56.9134 103.757C61.6557 108.515 69.3445 108.515 74.0867 103.757Z" fill="#87F5A6"/>
<path d="M107.185 136.963C114.007 130.119 114.007 119.023 107.185 112.179C100.364 105.335 89.3032 105.335 82.4814 112.179C75.6596 119.023 75.6596 130.119 82.4814 136.963C89.3032 143.807 100.364 143.807 107.185 136.963Z" fill="#87F5A6"/>
<path d="M140.273 170.159C149.169 161.235 149.169 146.765 140.273 137.841C131.378 128.916 116.956 128.916 108.06 137.841C99.1646 146.765 99.1646 161.235 108.06 170.159C116.956 179.084 131.378 179.084 140.273 170.159Z" fill="#87F5A6"/>
<path d="M169.607 199.588C178.502 190.664 178.502 176.194 169.607 167.27C160.711 158.345 146.289 158.345 137.393 167.27C128.498 176.194 128.498 190.664 137.393 199.588C146.289 208.512 160.711 208.512 169.607 199.588Z" fill="#87F5A6"/>
<path d="M195.185 225.25C202.007 218.406 202.007 207.31 195.185 200.465C188.363 193.621 177.303 193.621 170.481 200.465C163.66 207.31 163.66 218.406 170.481 225.25C177.303 232.094 188.363 232.094 195.185 225.25Z" fill="#87F5A6"/>
<path d="M220.753 250.901C225.496 246.143 225.496 238.43 220.753 233.672C216.011 228.914 208.322 228.914 203.58 233.672C198.838 238.43 198.838 246.143 203.58 250.901C208.322 255.659 216.011 255.659 220.753 250.901Z" fill="#87F5A6"/>
<path d="M246.332 276.563C249.001 273.886 249.001 269.545 246.332 266.868C243.663 264.19 239.337 264.19 236.668 266.868C233.999 269.545 233.999 273.886 236.668 276.563C239.337 279.24 243.663 279.24 246.332 276.563Z" fill="#87F5A6"/>
<path d="M70.3321 41.1323C73.0007 38.455 73.0007 34.1142 70.3321 31.4369C67.6634 28.7595 63.3367 28.7595 60.6681 31.4369C57.9995 34.1142 57.9995 38.455 60.6681 41.1323C63.3367 43.8097 67.6634 43.8097 70.3321 41.1323Z" fill="#87F5A6"/>
<path d="M103.42 74.3281C108.162 69.5703 108.162 61.8565 103.42 57.0988C98.6778 52.3411 90.989 52.3411 86.2467 57.0988C81.5044 61.8565 81.5044 69.5703 86.2467 74.3281C90.989 79.0858 98.6778 79.0858 103.42 74.3281Z" fill="#87F5A6"/>
<path d="M136.519 107.535C143.34 100.69 143.34 89.5941 136.519 82.7501C129.697 75.906 118.637 75.906 111.815 82.7501C104.993 89.5941 104.993 100.69 111.815 107.535C118.637 114.379 129.697 114.379 136.519 107.535Z" fill="#87F5A6"/>
<path d="M169.607 140.73C178.502 131.806 178.502 117.336 169.607 108.412C160.711 99.4876 146.289 99.4876 137.393 108.412C128.498 117.336 128.498 131.806 137.393 140.73C146.289 149.655 160.711 149.655 169.607 140.73Z" fill="#87F5A6"/>
<path d="M198.94 170.159C207.835 161.235 207.835 146.765 198.94 137.841C190.045 128.916 175.622 128.916 166.727 137.841C157.831 146.765 157.831 161.235 166.727 170.159C175.622 179.084 190.045 179.084 198.94 170.159Z" fill="#87F5A6"/>
<path d="M224.519 195.821C231.34 188.977 231.34 177.881 224.519 171.037C217.697 164.193 206.636 164.193 199.815 171.037C192.993 177.881 192.993 188.977 199.815 195.821C206.636 202.665 217.697 202.665 224.519 195.821Z" fill="#87F5A6"/>
<path d="M250.087 221.472C254.829 216.715 254.829 209.001 250.087 204.243C245.344 199.485 237.656 199.485 232.913 204.243C228.171 209.001 228.171 216.715 232.913 221.472C237.656 226.23 245.344 226.23 250.087 221.472Z" fill="#87F5A6"/>
<path d="M275.665 247.134C278.334 244.457 278.334 240.116 275.665 237.439C272.997 234.762 268.67 234.762 266.001 237.439C263.333 240.116 263.333 244.457 266.001 247.134C268.67 249.812 272.997 249.812 275.665 247.134Z" fill="#87F5A6"/>
<path d="M98.7161 10.751C100.86 8.59972 100.86 5.11174 98.7161 2.96042C96.5717 0.809102 93.0951 0.809102 90.9507 2.96042C88.8064 5.11174 88.8064 8.59972 90.9507 10.751C93.0951 12.9024 96.5717 12.9024 98.7161 10.751Z" fill="#87F5A6"/>
<path d="M130.876 43.0158C134.581 39.2982 134.581 33.2709 130.876 29.5534C127.171 25.8359 121.163 25.8359 117.457 29.5534C113.752 33.2709 113.752 39.2982 117.457 43.0158C121.163 46.7333 127.171 46.7333 130.876 43.0158Z" fill="#87F5A6"/>
<path d="M163.025 75.2698C168.286 69.992 168.286 61.4349 163.025 56.1571C157.765 50.8793 149.235 50.8793 143.975 56.1571C138.714 61.4349 138.714 69.992 143.975 75.2698C149.235 80.5476 157.765 80.5476 163.025 75.2698Z" fill="#87F5A6"/>
<path d="M195.185 107.535C202.007 100.69 202.007 89.5941 195.185 82.7501C188.363 75.906 177.303 75.906 170.481 82.7501C163.66 89.5941 163.66 100.69 170.481 107.535C177.303 114.379 188.363 114.379 195.185 107.535Z" fill="#87F5A6"/>
<path d="M224.519 136.963C231.34 130.119 231.34 119.023 224.519 112.179C217.697 105.335 206.636 105.335 199.815 112.179C192.993 119.023 192.993 130.119 199.815 136.963C206.636 143.807 217.697 143.807 224.519 136.963Z" fill="#87F5A6"/>
<path d="M251.025 163.556C256.286 158.279 256.286 149.721 251.025 144.444C245.765 139.166 237.235 139.166 231.975 144.444C226.714 149.721 226.714 158.279 231.975 163.556C237.235 168.834 245.765 168.834 251.025 163.556Z" fill="#87F5A6"/>
<path d="M277.543 190.16C281.248 186.443 281.248 180.415 277.543 176.698C273.837 172.98 267.829 172.98 264.124 176.698C260.418 180.415 260.418 186.443 264.124 190.16C267.829 193.878 273.837 193.878 277.543 190.16Z" fill="#87F5A6"/>
<path d="M304.049 216.753C306.194 214.602 306.194 211.114 304.049 208.962C301.905 206.811 298.428 206.811 296.284 208.962C294.14 211.114 294.14 214.602 296.284 216.753C298.428 218.904 301.905 218.904 304.049 216.753Z" fill="#87F5A6"/>
<path d="M158.332 11.7035C161.001 9.02613 161.001 4.68533 158.332 2.008C155.663 -0.669332 151.337 -0.669333 148.668 2.008C145.999 4.68533 145.999 9.02613 148.668 11.7035C151.337 14.3808 155.663 14.3808 158.332 11.7035Z" fill="#87F5A6"/>
<path d="M189.543 43.0158C193.248 39.2982 193.248 33.2709 189.543 29.5534C185.837 25.8359 179.829 25.8359 176.124 29.5534C172.419 33.2709 172.419 39.2982 176.124 43.0158C179.829 46.7333 185.837 46.7333 189.543 43.0158Z" fill="#87F5A6"/>
<path d="M220.753 74.3281C225.496 69.5703 225.496 61.8565 220.753 57.0988C216.011 52.3411 208.322 52.3411 203.58 57.0988C198.838 61.8565 198.838 69.5703 203.58 74.3281C208.322 79.0858 216.011 79.0858 220.753 74.3281Z" fill="#87F5A6"/>
<path d="M250.087 103.757C254.829 98.9992 254.829 91.2854 250.087 86.5277C245.344 81.7699 237.656 81.7699 232.913 86.5277C228.171 91.2854 228.171 98.9992 232.913 103.757C237.656 108.515 245.344 108.515 250.087 103.757Z" fill="#87F5A6"/>
<path d="M277.543 131.302C281.248 127.585 281.248 121.558 277.543 117.84C273.837 114.122 267.829 114.122 264.124 117.84C260.418 121.558 260.418 127.585 264.124 131.302C267.829 135.02 273.837 135.02 277.543 131.302Z" fill="#87F5A6"/>
<path d="M304.999 158.848C307.667 156.17 307.667 151.83 304.999 149.152C302.33 146.475 298.003 146.475 295.335 149.152C292.666 151.83 292.666 156.17 295.335 158.848C298.003 161.525 302.33 161.525 304.999 158.848Z" fill="#87F5A6"/>
<path d="M216.049 10.751C218.194 8.59972 218.194 5.11174 216.049 2.96042C213.905 0.809102 210.428 0.809102 208.284 2.96042C206.14 5.11174 206.14 8.59972 208.284 10.751C210.428 12.9024 213.905 12.9024 216.049 10.751Z" fill="#87F5A6"/>
<path d="M246.332 41.1323C249.001 38.455 249.001 34.1142 246.332 31.4369C243.663 28.7595 239.337 28.7595 236.668 31.4369C233.999 34.1142 233.999 38.455 236.668 41.1323C239.337 43.8097 243.663 43.8097 246.332 41.1323Z" fill="#87F5A6"/>
<path d="M275.665 70.5612C278.334 67.8838 278.334 63.543 275.665 60.8657C272.997 58.1884 268.67 58.1884 266.001 60.8657C263.333 63.543 263.333 67.8838 266.001 70.5612C268.67 73.2385 272.997 73.2385 275.665 70.5612Z" fill="#87F5A6"/>
<path d="M304.049 99.0376C306.194 96.8863 306.194 93.3983 304.049 91.247C301.905 89.0957 298.428 89.0957 296.284 91.247C294.14 93.3983 294.14 96.8863 296.284 99.0376C298.428 101.189 301.905 101.189 304.049 99.0376Z" fill="#87F5A6"/>
</svg>
